<svg xmlns="http://www.w3.org/2000/svg" width="256" height="256" viewBox="0 0 100 100"><path fill="#793000" d="M14.91 83.07L14.73 83.24Q16.93 75.91 20.67 50.73L20.67 50.73Q22.51 38.29 23.65 27.52L23.65 27.52Q21.41 23.30 19.48 20.80L19.48 20.80Q22.12 20.49 24.84 19.57L24.84 19.57Q28.84 18.21 30.55 16.84L30.55 16.84L30.55 16.93L30.64 16.84L30.60 16.93Q31.92 22.29 40.18 48.53L40.18 48.53Q46.15 67.42 48.48 70.19L48.48 70.19Q50.90 66.72 57.89 47.78L57.89 47.78Q64.48 29.90 66.06 23.83L66.06 23.83Q65.84 23.22 65.23 22.07L65.23 22.07L64.48 20.67Q69.80 20.05 75.25 16.93L75.25 16.93L75.55 16.76L75.55 16.80L75.55 16.84Q75.55 30.95 78.06 48.09L78.06 48.09Q81.09 68.74 84.48 77.62L84.48 77.62Q85.05 79.11 85.27 79.20L85.27 79.20Q82.28 79.55 79.90 80.43L79.90 80.43Q76.08 81.84 74.19 83.24L74.19 83.24Q74.28 82.41 74.28 81.18L74.28 81.18Q74.19 72.87 71.20 48.79L71.20 48.79Q69.97 38.82 68.48 32.05L68.48 32.05L61.93 48.04Q55.03 65.53 53.36 77.58L53.36 77.58Q53.19 78.85 53.14 78.89L53.14 78.89L53.19 79.33Q47.87 79.95 42.42 83.07L42.42 83.07L42.11 83.24Q40.71 69.97 33.19 49.85L33.19 49.85Q29.63 40.31 26.60 33.63L26.60 33.63Q25.37 40.97 24.01 50.90L24.01 50.90Q21.90 66.02 21.37 78.32L21.37 78.32L21.33 79.33Q17.99 79.99 14.91 83.07L14.91 83.07Z"></path></svg>