<svg xmlns="http://www.w3.org/2000/svg" data-name="Layer 1" viewBox="0 0 128 160" x="0px" y="0px"><title>Miscellaneous 54 final </title><path d="M9,111H54v4H41a2,2,0,0,0,0,4H87a2,2,0,0,0,0-4H74v-4h45a9.01015,9.01015,0,0,0,9-9V18a9.01015,9.01015,0,0,0-9-9H9a9.01015,9.01015,0,0,0-9,9v84A9.01015,9.01015,0,0,0,9,111Zm61,4H58v-4H70Zm49-8H9a5.00837,5.00837,0,0,1-4.89893-4H123.89893A5.00837,5.00837,0,0,1,119,107ZM4,18a5.00589,5.00589,0,0,1,5-5H119a5.00589,5.00589,0,0,1,5,5V99H4Z"/><path d="M115,17H13a5.00589,5.00589,0,0,0-5,5V93a2,2,0,0,0,4,0V37H116V93a2,2,0,0,0,4,0V22A5.00589,5.00589,0,0,0,115,17Zm1,16H12V22a1.001,1.001,0,0,1,1-1H115a1.001,1.001,0,0,1,1,1Z"/><path d="M110,25h-4a2,2,0,0,0,0,4h4a2,2,0,0,0,0-4Z"/><path d="M98,25H94a2,2,0,0,0,0,4h4a2,2,0,0,0,0-4Z"/><path d="M108,41H20a4.00427,4.00427,0,0,0-4,4V67a4.00427,4.00427,0,0,0,4,4h88a4.00427,4.00427,0,0,0,4-4V45A4.00427,4.00427,0,0,0,108,41ZM20,67V45h88l.00293,22Z"/><path d="M36.333,73.8335H22a5.00589,5.00589,0,0,0-5,5V93a2.0001,2.0001,0,0,0,2,2H39.333a2.00011,2.00011,0,0,0,2-2V78.8335A5.00589,5.00589,0,0,0,36.333,73.8335ZM37.333,91H21V78.8335a1.001,1.001,0,0,1,1-1H36.333a1.001,1.001,0,0,1,1,1Z"/><path d="M64.333,73.8335H50a5.00589,5.00589,0,0,0-5,5V93a2.0001,2.0001,0,0,0,2,2H67.333a2.00011,2.00011,0,0,0,2-2V78.8335A5.00589,5.00589,0,0,0,64.333,73.8335ZM65.333,91H49V78.8335a1.001,1.001,0,0,1,1-1H64.333a1.001,1.001,0,0,1,1,1Z"/><path d="M106,79H76a2,2,0,0,0,0,4h30a2,2,0,0,0,0-4Z"/><path d="M106,87H76a2,2,0,0,0,0,4h30a2,2,0,0,0,0-4Z"/><path d="M84,54H44a2,2,0,0,0,0,4H84a2,2,0,0,0,0-4Z"/></svg>