<svg xmlns="http://www.w3.org/2000/svg" xmlns:xlink="http://www.w3.org/1999/xlink" version="1.1" x="0px" y="0px" viewBox="0 0 100 125" style="enable-background:new 0 0 100 100;" xml:space="preserve"><path d="M12.7558594,22.0429688c-1.1962891,2.7231445-0.6484375,5.9018555,1.4746094,8.0239258  c1.1923828,1.1928711,2.7763672,1.9165039,4.4575195,2.0610352c0.1445312,1.6816406,0.8681641,3.265625,2.0610352,4.4575195  c1.3955078,1.3955078,3.2329102,2.0917969,5.0805664,2.0917969c1.8867188,0,3.7841797-0.7260742,5.2319336-2.1738281  c0.7054443-0.7054443,1.2454834-1.5302734,1.6138306-2.4324341l3.0111694,3.0110474l-1.590332,1.590332  c-1.1000977,1.0996094-1.6762695,2.6220703-1.5810547,4.1762695c0.0961914,1.5581055,0.8574219,3.0024414,2.0625,3.9414062  l25.9487305,21.6958008c1.1655273,0.9746094,2.5766602,1.4560547,3.9829102,1.4560547  c1.5888672,0,3.1713867-0.6147461,4.3852539-1.8286133c2.3237305-2.3237305,2.4306641-6.0654297,0.2426758-8.5180664  L46.8300781,34.5859375c-0.9604492-1.2314453-2.4042969-1.9926758-3.9624023-2.0888672  c-1.5595703-0.0961914-3.0771484,0.480957-4.1767578,1.5805664l-1.590332,1.590332l-3.0112915-3.0111694  c0.9019775-0.3683472,1.7268677-0.9083862,2.4326782-1.6138306c2.8657227-2.8657227,2.902832-7.4921875,0.0820312-10.3125  c-1.1928711-1.1928711-2.7763672-1.9165039-4.4575195-2.0605469c-0.1445312-1.6816406-0.8686523-3.265625-2.0610352-4.4580078  c-2.1225586-2.1225586-5.3012695-2.6699219-8.0239258-1.4746094c-0.2192383-0.3173828-0.4658203-0.6132812-0.7373047-0.8847656  c-1.2456055-1.2456055-2.9111328-1.9140625-4.6835938-1.90625c-1.7685547,0.0166016-3.4360352,0.7197266-4.6962891,1.9799805  c-1.2602539,1.2597656-1.9628906,2.9277344-1.9794922,4.6958008c-0.0161133,1.7749023,0.6606445,3.4384766,1.90625,4.6835938  C12.1425781,21.5771484,12.4384766,21.8237305,12.7558594,22.0429688z M40.1049805,35.4916992  c0.6450195-0.6450195,1.5205078-1.0048828,2.4282227-1.0048828c0.0703125,0,0.1411133,0.0019531,0.2114258,0.0063477  c0.9863281,0.0610352,1.9003906,0.5429688,2.5507812,1.3730469l0.8845825,0.9918823l-3.4597778,3.4597778  c-0.390625,0.390625-0.390625,1.0234375,0,1.4140625c0.1953125,0.1953125,0.4511719,0.2929688,0.7070312,0.2929688  s0.5117188-0.0976562,0.7070312-0.2929688l3.3789673-3.3789673l5.6506958,6.3360596l-3.5721436,3.5717163  c-0.390625,0.3901367-0.390625,1.0234375,0,1.4140625c0.1953125,0.1953125,0.4511719,0.2929688,0.7070312,0.2929688  s0.5117188-0.0976562,0.7070312-0.2929688l3.491333-3.4909058l9.4770508,10.6264648l-3.572876,3.5724487  c-0.390625,0.3901367-0.390625,1.0234375,0,1.4140625c0.1953125,0.1953125,0.4511719,0.2929688,0.7070312,0.2929688  s0.5117188-0.0976562,0.7070312-0.2929688l3.4920654-3.4916382l2.3375244,2.6210327  c1.4824219,1.6625977,1.4101562,4.1982422-0.1645508,5.7729492c-1.550293,1.550293-3.9887695,1.6591797-5.6713867,0.2524414  l-9.0487671-7.5654907l3.1078491-3.1078491c0.390625-0.390625,0.390625-1.0234375,0-1.4140625s-1.0234375-0.390625-1.4140625,0  l-3.2340698,3.2340698l-8.6147461-7.2026367l2.975769-2.975769c0.390625-0.390625,0.390625-1.0234375,0-1.4140625  s-1.0234375-0.390625-1.4140625,0l-3.1020508,3.1020508l-5.230957-4.3735352  c-0.7797852-0.6079102-1.2617188-1.5224609-1.3222656-2.5083008c-0.0605469-0.9824219,0.3032227-1.9443359,0.9985352-2.6396484  L40.1049805,35.4916992z M13.3583984,13.340332c0.8876953-0.887207,2.0595703-1.3823242,3.300293-1.394043  c1.2563477-0.0078125,2.3886719,0.4575195,3.2514648,1.3203125c0.3520508,0.3520508,0.644043,0.7661133,0.8676758,1.230957  c0.1225586,0.2548828,0.347168,0.4458008,0.6186523,0.5258789c0.2695312,0.0786133,0.5634766,0.0395508,0.8046875-0.1069336  c2.1035156-1.2890625,4.7636719-0.9970703,6.4702148,0.7094727c1.0336914,1.0336914,1.578125,2.480957,1.4931641,3.9707031  c-0.0161133,0.284668,0.0898438,0.5625,0.2915039,0.7636719c0.2011719,0.2011719,0.4794922,0.3012695,0.7641602,0.2915039  c1.4882812-0.0839844,2.9360352,0.4589844,3.9697266,1.4926758c2.0405273,2.0410156,2.0039062,5.3984375-0.0820312,7.4838867  c-0.7264404,0.7264404-1.6271973,1.2044067-2.616272,1.4307861L21.5351562,20.1030273  c-0.390625-0.390625-1.0234375-0.390625-1.4140625,0s-0.390625,1.0234375,0,1.4140625l10.956665,10.9563599  c-0.2264404,0.9893188-0.7043457,1.8899536-1.4302979,2.6159058c-2.0864258,2.0869141-5.4438477,2.1210938-7.484375,0.0820312  c-1.0336914-1.0336914-1.578125-2.4804688-1.4931641-3.9702148c0.0161133-0.2841797-0.0898438-0.5625-0.2915039-0.7636719  c-0.1879883-0.1879883-0.4423828-0.2929688-0.7070312-0.2929688c-0.019043,0-0.0375977,0.0004883-0.0566406,0.0014648  C18.125,30.230957,16.6787109,29.6860352,15.6445312,28.652832c-1.706543-1.706543-1.9985352-4.3671875-0.7094727-6.4702148  c0.1479492-0.2412109,0.1865234-0.5336914,0.1069336-0.8046875c-0.0800781-0.2714844-0.2709961-0.4960938-0.5258789-0.6186523  c-0.4648438-0.2236328-0.8789062-0.515625-1.230957-0.8676758c-0.862793-0.862793-1.331543-2.0170898-1.3203125-3.2509766  C11.9765625,15.3994141,12.4711914,14.2275391,13.3583984,13.340332z"/><path d="M79.1533203,23.234375c1.1479492,0.3237305,2.0483398,1.0356445,2.6025391,2.059082  c0.7543945,1.3925781,0.8164062,3.2905273,0.1738281,5.3442383c-0.1645508,0.5268555,0.1289062,1.0878906,0.65625,1.2529297  c0.0991211,0.0307617,0.199707,0.0458984,0.2988281,0.0458984c0.425293,0,0.8203125-0.2744141,0.9541016-0.7021484  c0.8046875-2.5737305,0.6899414-5.0219727-0.3242188-6.8935547c-0.8061523-1.4882812-2.1625977-2.5649414-3.8193359-3.03125  c-0.527832-0.1489258-1.0839844,0.159668-1.2333984,0.6914062C78.3120117,22.5322266,78.621582,23.0849609,79.1533203,23.234375z"/><path d="M75.8032227,11.9101562c0.4990234-0.2363281,0.7119141-0.8325195,0.4755859-1.3320312  c-0.2358398-0.4990234-0.831543-0.7109375-1.3320312-0.4755859c-3.3662109,1.5946045-4.132019,5.2825317-4.2558594,7.6965942  c-2.8012695-1.9072876-6.0894775-2.4853516-9.2954102-1.5671997c-2.8168945,0.8071289-5.0380859,2.5844727-6.4233398,5.1396484  c-1.7749023,3.2739258-1.9755859,7.6015625-0.565918,12.1855469c2.6987305,8.7739258,9.9594727,14.4624023,16.1762695,12.6791992  c0.3881836-0.1113281,0.7744141-0.2539062,1.152832-0.425293c0.3779297,0.1713867,0.7636719,0.3139648,1.1523438,0.425293  c0.7705078,0.2207031,1.5556641,0.3266602,2.3476562,0.3266602c5.6005859-0.0004883,11.4648438-5.3188477,13.8286133-13.0058594  c1.409668-4.5839844,1.2089844-8.9116211-0.565918-12.1855469c-1.3852539-2.5551758-3.6064453-4.3325195-6.4238281-5.1396484  c-3.2390747-0.9268188-6.5628662-0.3227539-9.3839111,1.6343994C72.7949219,15.9224243,73.3791504,13.0582275,75.8032227,11.9101562  z M81.5234375,18.1547852c2.2890625,0.6557617,4.0932617,2.0976562,5.2163086,4.1699219  c1.5166016,2.7978516,1.6630859,6.578125,0.4121094,10.6445312c-2.3798828,7.7392578-8.5341797,12.8291016-13.7133789,11.3442383  c-0.4179688-0.1196289-0.8339844-0.2880859-1.2368164-0.5004883c-0.1459961-0.0766602-0.3061523-0.1152344-0.4663086-0.1152344  s-0.3198242,0.0385742-0.4658203,0.1152344c-0.4038086,0.2124023-0.8203125,0.3808594-1.237793,0.5004883  c-5.1791992,1.4863281-11.3334961-3.6040039-13.7133789-11.3442383c-1.2509766-4.0664062-1.1044922-7.8466797,0.4121094-10.6445312  c1.1230469-2.0722656,2.9267578-3.5141602,5.2158203-4.1699219c3.1918945-0.9155273,6.5063477-0.0058594,9.0942383,2.4931641  c0.0058594,0.0056763,0.0137329,0.0072632,0.0197144,0.0127563c0.072998,0.0673218,0.1585083,0.1169434,0.2483521,0.1601562  c0.0224609,0.0106812,0.0410767,0.0296631,0.0640869,0.0386353c0.1130371,0.0441895,0.2346802,0.0692139,0.3612061,0.0692139  c0.0419922,0,0.0844727-0.0024414,0.1269531-0.0078125c0.0404663-0.005127,0.0725708-0.027832,0.1112061-0.0374756  c0.0673828-0.0165405,0.1314087-0.0349121,0.1947632-0.0655518c0.0605469-0.0294189,0.1123047-0.0661011,0.164917-0.1063843  c0.0316162-0.0239868,0.0692139-0.0353394,0.0984497-0.0635376C75.0170898,18.1494141,78.3305664,17.2402344,81.5234375,18.1547852z  "/><path d="M26.2519531,62.2250977c0.7373047,0,2.2709961,0,2.2709961,5.4008789c0,0.5522461,0.4477539,1,1,1s1-0.4477539,1-1  c0-2.0239258,0-7.4008789-4.2709961-7.4008789c-0.5522461,0-1,0.4477539-1,1S25.699707,62.2250977,26.2519531,62.2250977z"/><path d="M21.8549805,89.8354492c0.3706055,0,0.7470703-0.0317383,1.1279297-0.0957031  c0.3964844-0.0667725,0.7791138-0.1741943,1.1481934-0.305603c0.7947388,0.3562622,1.6447754,0.5595093,2.5603027,0.5595093  c0.9348755,0,1.8018188-0.2105713,2.6106567-0.5818481c0.388855,0.1431885,0.7947388,0.2572021,1.2145386,0.3279419  c0.3813477,0.0639648,0.7573242,0.0957031,1.128418,0.0957031c5.1953125,0,9.3461914-6.2265625,11.2319336-17.0083008  c1.1088867-6.3378906,0.7490234-10.5283203-1.1313477-13.1875c-1.1860352-1.6772461-3.012207-2.7333984-5.4282227-3.1401367  c-1.4472656-0.2427979-2.7712402-0.1858521-3.9556885,0.1434937c-1.1583862-1.1079102-2.6900635-1.8248901-4.6837158-2.0065918  c0.0925293-1.9838257-0.0852661-7.1955566-4.263916-9.1749878c-0.4980469-0.2363281-1.0961914-0.0234375-1.3320312,0.4755859  c-0.2363281,0.4995117-0.0234375,1.0957031,0.4755859,1.3320312c3.1289062,1.4818726,3.190918,5.8607788,3.114624,7.3695679  c-1.963623,0.1851196-3.475647,0.8931274-4.6246948,1.9816284c-1.1616821-0.3070068-2.4537964-0.3573608-3.8649292-0.1207275  c-2.4160156,0.4067383-4.2421875,1.4628906-5.4282227,3.1401367c-1.8803711,2.6591797-2.2402344,6.8496094-1.1313477,13.1875  C12.5087891,83.609375,16.659668,89.8354492,21.8549805,89.8354492z M35.9853516,58.472168  c1.8979492,0.3188477,3.2475586,1.0786133,4.1269531,2.3222656c1.5317383,2.1655273,1.7915039,5.9887695,0.7949219,11.6879883  c-1.3358154,7.637085-4.4890137,15.4719238-9.4056396,15.328064c2.8547974-3.0324097,4.4627686-9.1083374,4.4627686-17.4901733  c0-4.2210693-0.3584595-8.7925415-2.2227783-11.9196777C34.4254761,58.317627,35.1634521,58.3341064,35.9853516,58.472168z   M26.6914062,56.5712891c3.5961914,0,7.2729492,1.6333008,7.2729492,13.7490234  c0,8.5439453-1.9106445,17.6733398-7.2729492,17.6733398c-5.362793,0-7.2734375-9.1293945-7.2734375-17.6733398  C19.4179688,58.2045898,23.0947266,56.5712891,26.6914062,56.5712891z M13.3876953,60.7944336  c0.8793945-1.2436523,2.2290039-2.003418,4.1269531-2.3222656c0.777771-0.1310425,1.4799194-0.1509399,2.1338501-0.083374  c-1.8707886,3.1273804-2.2305298,7.7049561-2.2305298,11.9315186c0,8.3881836,1.6104126,14.4674072,4.4694214,17.4974976  c-4.8502808,0.0245361-7.9683228-7.7558594-9.2946167-15.3353882C11.5961914,66.7832031,11.855957,62.9599609,13.3876953,60.7944336  z"/><path d="M63.5644531,87.5297852c3.28125-3.28125,3.2890625-8.612793,0.0170898-11.8847656  c-2.9702148-2.9711914-10.9121094-6.0043945-14.4086914-2.5068359c-3.4970703,3.4970703-0.4643555,11.4379883,2.5063477,14.4086914  c1.6328125,1.6333008,3.7788086,2.4492188,5.9267578,2.4492188C59.762207,89.9960938,61.9208984,89.1738281,63.5644531,87.5297852z   M50.5869141,74.5522461c0.6967773-0.6967773,1.7700195-0.9907227,3.0043945-0.9907227  c2.9111328,0,6.715332,1.637207,8.5761719,3.4975586c2.4921875,2.4921875,2.484375,6.5551758-0.0170898,9.0566406  c-2.5014648,2.5009766-6.5644531,2.5092773-9.0571289,0.0170898C50.4438477,83.4833984,48.2475586,76.8916016,50.5869141,74.5522461  z"/><path d="M88.9018555,77.1982422c0.9296875-2.0708008,1.3007812-5.0654297,0.9692383-7.8149414  c-0.3994141-3.3134766-1.7319336-5.637207-3.7514648-6.543457c-4.5112305-2.0239258-10.8549805,3.6333008-12.574707,7.4677734  c-0.9179688,2.0454102-0.9819336,4.3271484-0.1796875,6.4243164c0.8012695,2.0961914,2.3720703,3.7573242,4.4228516,4.6777344  c1.1181641,0.5014648,2.2885742,0.7387695,3.440918,0.7387695C84.4394531,82.1484375,87.5083008,80.3051758,88.9018555,77.1982422z   M78.6064453,79.5844727c-1.5639648-0.7016602-2.762207-1.9682617-3.3735352-3.5668945  c-0.6108398-1.597168-0.5625-3.3344727,0.1362305-4.8916016c1.3393555-2.9833984,5.6074219-6.7128906,8.6782227-6.7128906  c0.4477539,0,0.8696289,0.0795898,1.2539062,0.2519531c1.3344727,0.5986328,2.2763672,2.4057617,2.5844727,4.9575195  c0.2861328,2.3730469-0.03125,5.0253906-0.8081055,6.7573242C85.6342773,79.5952148,81.8339844,81.0322266,78.6064453,79.5844727z"/></svg>