<?xml version="1.0" encoding="iso-8859-1"?>
<!-- Generator: Adobe Illustrator 19.0.0, SVG Export Plug-In . SVG Version: 6.00 Build 0)  -->
<svg version="1.1" id="Capa_1" xmlns="http://www.w3.org/2000/svg" xmlns:xlink="http://www.w3.org/1999/xlink" x="0px" y="0px"
	 viewBox="0 0 512 512" style="enable-background:new 0 0 512 512;" xml:space="preserve">
<g>
	<g>
		<path d="M164.571,0C103.448,0,0,12.837,0,60.952c0,48.116,103.448,60.952,164.571,60.952s164.571-12.837,164.571-60.952
			C329.143,12.837,225.694,0,164.571,0z M164.571,85.333c-74.338,0-116.943-15.823-126.653-24.381
			c9.71-8.558,52.322-24.381,126.653-24.381s116.943,15.823,126.653,24.381C281.515,69.51,238.909,85.333,164.571,85.333z"/>
	</g>
</g>
<g>
	<g>
		<path d="M292.571,121.905c0-0.994,0.28-1.701,0.384-1.89c-4.376,7.729-47.537,26.27-128.384,26.27s-124.008-18.542-128.384-26.27
			c0.11,0.189,0.384,0.896,0.384,1.89H0c0,44.989,88.655,60.952,164.571,60.952s164.571-15.963,164.571-60.952H292.571z"/>
	</g>
</g>
<g>
	<g>
		<path d="M292.571,182.857c0-0.993,0.28-1.701,0.384-1.889c-4.376,7.729-47.537,26.27-128.384,26.27s-124.008-18.542-128.384-26.27
			c0.11,0.189,0.384,0.896,0.384,1.889H0c0,44.989,88.655,60.952,164.571,60.952s164.571-15.963,164.571-60.952H292.571z"/>
	</g>
</g>
<g>
	<g>
		<path d="M292.571,243.81c0-0.993,0.274-1.701,0.384-1.89c-4.376,7.729-47.537,26.271-128.384,26.271S40.564,249.649,36.187,241.92
			c0.11,0.189,0.384,0.896,0.384,1.89H0c0,44.989,88.655,60.952,164.571,60.952s164.571-15.963,164.571-60.952H292.571z"/>
	</g>
</g>
<g>
	<g>
		<path d="M198.345,327.942l-1.317,0.073c-10.91,0.579-21.211,1.128-32.457,1.128c-80.847,0-124.008-18.542-128.384-26.271
			c0.11,0.189,0.384,0.896,0.384,1.89H0c0,44.989,88.655,60.952,164.571,60.952c12.209,0,22.985-0.573,34.389-1.182l1.317-0.067
			L198.345,327.942z"/>
	</g>
</g>
<g>
	<g>
		<path d="M202.453,388.352c-12.142,1.152-24.893,1.743-37.882,1.743c-80.847,0-124.008-18.542-128.384-26.27
			c0.11,0.189,0.384,0.896,0.384,1.89H0c0,44.989,88.655,60.952,164.571,60.952c14.147,0,28.063-0.64,41.35-1.908L202.453,388.352z"
			/>
	</g>
</g>
<g>
	<g>
		<rect x="292.571" y="60.952" width="36.571" height="225.524"/>
	</g>
</g>
<g>
	<g>
		<rect y="60.952" width="36.571" height="304.762"/>
	</g>
</g>
<g>
	<g>
		<path d="M347.429,268.19c-61.123,0-164.571,12.837-164.571,60.952c0,48.116,103.448,60.952,164.571,60.952
			S512,377.259,512,329.143C512,281.027,408.552,268.19,347.429,268.19z M347.429,353.524c-74.338,0-116.943-15.823-126.653-24.381
			c9.71-8.558,52.322-24.381,126.653-24.381s116.937,15.823,126.653,24.381C464.372,337.701,421.766,353.524,347.429,353.524z"/>
	</g>
</g>
<g>
	<g>
		<path d="M475.429,390.095c0-0.993,0.274-1.701,0.384-1.89c-4.376,7.729-47.537,26.271-128.384,26.271
			s-124.008-18.542-128.384-26.271c0.11,0.189,0.384,0.896,0.384,1.89h-36.571c0,44.989,88.655,60.952,164.571,60.952
			S512,435.084,512,390.095H475.429z"/>
	</g>
</g>
<g>
	<g>
		<path d="M475.429,451.048c0-0.994,0.274-1.701,0.384-1.889c-4.376,7.729-47.537,26.27-128.384,26.27
			s-124.008-18.542-128.384-26.27c0.11,0.189,0.384,0.896,0.384,1.889h-36.571c0,44.989,88.655,60.952,164.571,60.952
			S512,496.037,512,451.048H475.429z"/>
	</g>
</g>
<g>
	<g>
		<rect x="475.429" y="329.143" width="36.571" height="121.905"/>
	</g>
</g>
<g>
	<g>
		<rect x="182.857" y="329.143" width="36.571" height="121.905"/>
	</g>
</g>
<g>
</g>
<g>
</g>
<g>
</g>
<g>
</g>
<g>
</g>
<g>
</g>
<g>
</g>
<g>
</g>
<g>
</g>
<g>
</g>
<g>
</g>
<g>
</g>
<g>
</g>
<g>
</g>
<g>
</g>
</svg>
